<?xml version="1.0" encoding="UTF-8" standalone="no"?>
<!-- Created with Inkscape (http://www.inkscape.org/) -->

<svg
   width="10cm"
   height="4cm"
   viewBox="0 0 100 40.000001"
   version="1.1"
   id="svg1"
   inkscape:version="1.4.2 (ebf0e940d0, 2025-05-08)"
   sodipodi:docname="header.svg"
   inkscape:export-filename="header.png"
   inkscape:export-xdpi="200"
   inkscape:export-ydpi="200"
   xmlns:inkscape="http://www.inkscape.org/namespaces/inkscape"
   xmlns:sodipodi="http://sodipodi.sourceforge.net/DTD/sodipodi-0.dtd"
   xmlns="http://www.w3.org/2000/svg"
   xmlns:svg="http://www.w3.org/2000/svg">
  <sodipodi:namedview
     id="namedview1"
     pagecolor="#ffffff"
     bordercolor="#000000"
     borderopacity="0.25"
     inkscape:showpageshadow="2"
     inkscape:pageopacity="0.0"
     inkscape:pagecheckerboard="0"
     inkscape:deskcolor="#d1d1d1"
     inkscape:document-units="mm"
     inkscape:zoom="1.8982858"
     inkscape:cx="213.87717"
     inkscape:cy="37.665561"
     inkscape:window-width="1920"
     inkscape:window-height="1043"
     inkscape:window-x="0"
     inkscape:window-y="0"
     inkscape:window-maximized="1"
     inkscape:current-layer="g1" />
  <defs
     id="defs1" />
  <g
     inkscape:label="Layer 1"
     inkscape:groupmode="layer"
     id="layer1"
     transform="translate(216.69375,-5.8208318)">
    <g
       stroke-linecap="round"
       transform="matrix(0.26458333,0,0,0.26458333,-216.07143,6.5284237)"
       id="g80">
      <path
         d="m 19.33,0 c 9.18,0.91 28.69,-3.2 38.65,0 10.17,-2.34 20.77,7.78 19.33,19.33 -2.53,13.04 -0.86,26.86 0,40.92 2.3,12.3 -6.65,19.57 -19.33,19.33 -13.63,3.03 -21.01,0.72 -38.65,0 C 5.69,80.68 1.62,76.01 0,60.25 0.51,54.37 -3.27,44.37 0,19.33 2.55,4.21 8,-2.63 19.33,0"
         stroke="none"
         stroke-width="0"
         fill="#e03131"
         id="path79" />
      <path
         d="m 19.33,0 c 8.52,-1.56 16.25,0.15 38.65,0 M 19.33,0 c 15.78,0.85 30.39,0.23 38.65,0 m 0,0 C 70.05,-0.79 76.49,7.44 77.31,19.33 M 57.98,0 C 69.43,-1.78 77.1,6.13 77.31,19.33 m 0,0 c 1.46,12.72 1.8,23.62 0,40.92 m 0,-40.92 c -1.18,11.04 -0.58,23.04 0,40.92 m 0,0 C 77.64,74.29 71.95,80.26 57.98,79.58 M 77.31,60.25 c 1.52,13.78 -7.35,20.91 -19.33,19.33 m 0,0 c -11.66,0.54 -24.69,-1.79 -38.65,0 m 38.65,0 C 43.89,79.25 31.91,79 19.33,79.58 m 0,0 C 7.07,78.78 -1.59,74.97 0,60.25 M 19.33,79.58 C 6.76,77.97 -0.67,72.49 0,60.25 m 0,0 C -0.15,50.7 2.4,38.37 0,19.33 M 0,60.25 C -0.26,46.16 -0.64,32.05 0,19.33 m 0,0 C -0.29,5.16 5.23,-0.38 19.33,0 M 0,19.33 C 0.15,5.27 7.35,1.02 19.33,0"
         stroke="#1e1e1e"
         stroke-width="4"
         fill="none"
         id="path80" />
    </g>
    <g
       stroke-linecap="round"
       id="g82"
       transform="matrix(0.26458333,0,0,0.26458333,-230.85366,-182.97056)">
      <g
         transform="translate(68.240913,724.43284)"
         id="g81">
        <path
           d="M -0.95,0.19 C 8.07,5.18 44.74,25.57 54.07,30.28 M 0.75,-0.76 C 9.63,3.89 44.15,23.7 53.16,28.7"
           stroke="#ffffff"
           stroke-width="4"
           fill="none"
           id="path81" />
      </g>
    </g>
    <g
       stroke-linecap="round"
       id="g84"
       transform="matrix(0.26458333,0,0,0.26458333,-230.85366,-182.97056)">
      <g
         transform="translate(70.262038,775.34723)"
         id="g83">
        <path
           d="M 0.08,1.04 C 8.8,-1.97 42.82,-14.99 51.36,-17.89 M -1.34,0.54 C 7.4,-2.36 42.24,-13.65 50.97,-16.8"
           stroke="#ffffff"
           stroke-width="4"
           fill="none"
           id="path82" />
      </g>
    </g>
    <g
       stroke-linecap="round"
       id="g86"
       transform="matrix(0.26458333,0,0,0.26458333,-230.85366,-182.97056)">
      <g
         transform="translate(69.06347,787.07179)"
         id="g85">
        <path
           d="M 1.07,-0.85 C 10,-1.47 44.99,-2.26 53.7,-2.69 M 0.17,1.33 c 8.86,-0.45 44.32,-5.2 53.1,-5.78"
           stroke="#ffffff"
           stroke-width="2"
           fill="none"
           id="path84" />
      </g>
    </g>
    <g
       stroke-linecap="round"
       id="g88"
       transform="matrix(0.26458333,0,0,0.26458333,-230.85366,-182.97056)">
      <g
         transform="translate(73.755965,753.46106)"
         id="g87">
        <path
           d="m 0.27,-0.02 c 2.59,-0.09 13.09,-0.25 15.71,-0.2 M -0.25,-0.51 C 2.2,-0.55 12.8,0.4 15.43,0.37"
           stroke="#ffffff"
           stroke-width="4"
           fill="none"
           id="path86" />
      </g>
    </g>
    <g
       stroke-linecap="round"
       id="g90"
       transform="matrix(0.26458333,0,0,0.26458333,-230.85366,-182.97056)">
      <g
         transform="translate(81.073192,745.8825)"
         id="g89">
        <path
           d="M -0.23,-0.22 C -0.4,2.4 -0.64,13.16 -0.75,15.69 M 0.66,-0.8 C 0.38,1.66 -1.23,12.17 -1.3,14.87"
           stroke="#ffffff"
           stroke-width="4"
           fill="none"
           id="path88" />
      </g>
    </g>
    <g
       transform="matrix(0.30051989,0,0,0.30051989,-191.18934,31.331175)"
       id="g133"
       style="fill:#e03131;fill-opacity:1" />
    <g
       transform="matrix(0.2177452,0,0,0.2177452,-183.93917,13.893713)"
       id="g1"
       style="fill:#e03131;fill-opacity:1">
      <text
         x="-21.511822"
         y="43.379982"
         font-family="Excalifont, Xiaolai, sans-serif, 'Segoe UI Emoji'"
         font-size="39.2678px"
         fill="#e03131"
         text-anchor="start"
         style="font-size:80.6101px;letter-spacing:12.4305px;white-space:pre;fill:#e03131;fill-opacity:1;stroke-width:3.18465"
         direction="ltr"
         dominant-baseline="alphabetic"
         id="text1"><tspan
           sodipodi:role="line"
           x="-21.511822"
           y="43.379982"
           style="font-style:normal;font-variant:normal;font-weight:bold;font-stretch:normal;font-size:80.6101px;font-family:'Hack Nerd Font';-inkscape-font-specification:'Hack Nerd Font Bold';letter-spacing:12.4305px;fill:#e03131;fill-opacity:1;stroke-width:3.18465"
           id="tspan6">SPI<tspan
   style="font-weight:normal;letter-spacing:12.4305px;fill:#000000;stroke-width:3.18465"
   id="tspan7">U</tspan></tspan></text>
    </g>
  </g>
</svg>
