<svg xmlns="http://www.w3.org/2000/svg" data-name="Layer 1" viewBox="0 0 512 640" x="0px" y="0px"><path d="M256,35.269A220.732,220.732,0,0,0,99.92,412.081,220.731,220.731,0,0,0,412.08,99.919,219.287,219.287,0,0,0,256,35.269ZM365,220.778v26.738a28.511,28.511,0,1,0,12,0V220.778A10.835,10.835,0,0,1,388,210h71.611a209.077,209.077,0,0,1-3.386,105H414.1A23.384,23.384,0,0,0,391,338.305v30.7A10.907,10.907,0,0,1,380.127,380h-59.2a28.515,28.515,0,1,0-.075,12h59.271A22.92,22.92,0,0,0,403,369.008v-30.7A11.373,11.373,0,0,1,414.1,327h38.189C423.174,407.247,346.177,464.731,256,464.731a210.035,210.035,0,0,1-23-1.273V312.177a10.783,10.783,0,0,1,10.24-10.962,28.374,28.374,0,0,0,56.645-2.531A28.522,28.522,0,0,0,244.508,289H243.5c-12.675,0-22.5,10.5-22.5,23.177v149.6a207.217,207.217,0,0,1-25-5.853v-84A22.591,22.591,0,0,0,173.457,349H161.7a28.5,28.5,0,1,0-.085,12h11.843c6.058,0,10.543,4.874,10.543,10.932v80C104.869,422.757,48.136,346.939,47.3,258H78.838C84.9,258,90,262.543,90,268.6v4.861A22.483,22.483,0,0,0,112.811,296h26.277a27.909,27.909,0,0,0,27.571,21.5,28.533,28.533,0,0,0,0-57.065,28.826,28.826,0,0,0-28.1,23.57H112.811A10.475,10.475,0,0,1,102,273.462V268.6c0-12.675-10.487-22.6-23.162-22.6H47.514C51.405,163.913,102.93,94.089,175,63.629v39.6a23.024,23.024,0,0,0,23,22.987A11.01,11.01,0,0,1,209,137.2v49.31c0,6.058-4.981,10.49-11.039,10.49H182.332c-2.708-12-14.186-22.4-27.895-22.4a28.473,28.473,0,1,0,27.83,34.4h15.694C210.636,209,221,199.185,221,186.51V137.2a23.023,23.023,0,0,0-23-22.986,11.011,11.011,0,0,1-11-10.987V59a207.441,207.441,0,0,1,59-11.491v66.08A23.692,23.692,0,0,0,269.354,137h10.563c6.058,0,11.083,4.508,11.083,10.566v44.8a28.471,28.471,0,1,0,12,.82V147.566C303,134.892,292.592,125,279.917,125H269.354A11.685,11.685,0,0,1,258,113.593v-66.3c94.1.89,173.508,64.353,198.523,150.706H388A22.847,22.847,0,0,0,365,220.778Zm22.52,54.6a16.5,16.5,0,1,1-16.5-16.5A16.524,16.524,0,0,1,387.52,275.379ZM309.534,385.833a16.5,16.5,0,1,1-16.5-16.5A16.522,16.522,0,0,1,309.534,385.833Zm-54.658-87.149a16.5,16.5,0,1,1,16.5,16.5A16.523,16.523,0,0,1,254.876,298.684ZM150.3,354.762a16.5,16.5,0,1,1-16.5-16.5A16.523,16.523,0,0,1,150.3,354.762Zm-.143-65.547a16.5,16.5,0,1,1,16.5,16.5A16.523,16.523,0,0,1,150.155,289.215Zm20.785-85.861a16.5,16.5,0,1,1-16.5-16.5A16.522,16.522,0,0,1,170.94,203.354Zm124.07.711a16.5,16.5,0,1,1-16.5,16.5A16.523,16.523,0,0,1,295.01,204.065Z"/><path d="M115.172,133.032a6,6,0,0,0-8.443.852,195.079,195.079,0,0,0-37.244,73.071,6,6,0,1,0,11.6,3.063,182.959,182.959,0,0,1,34.935-68.544A6,6,0,0,0,115.172,133.032Z"/><path d="M130.244,125.994c1.919-1.859,3.908-3.7,5.911-5.475a6,6,0,0,0-7.957-8.984c-2.136,1.892-4.256,3.857-6.3,5.84a6,6,0,0,0,8.349,8.619Z"/><text x="0" y="527" fill="#000000" font-size="5px" font-weight="bold" font-family="'Helvetica Neue', Helvetica, Arial-Unicode, Arial, Sans-serif">Created by Icongeek26</text><text x="0" y="532" fill="#000000" font-size="5px" font-weight="bold" font-family="'Helvetica Neue', Helvetica, Arial-Unicode, Arial, Sans-serif">from the Noun Project</text></svg>