<svg xmlns="http://www.w3.org/2000/svg" data-name="Layer 1" viewBox="0 0 512 640" x="0px" y="0px"><path d="M131,75a6,6,0,0,0,6-6V67a6,6,0,0,0-12,0v2A6,6,0,0,0,131,75Z"/><path d="M131,158a6,6,0,0,0,6-6V90a6,6,0,0,0-12,0v62A6,6,0,0,0,131,158Z"/><path d="M317.117,110a30.026,30.026,0,0,0-29.946-30H224.829a30,30,0,0,0,0,60h62.342A30.026,30.026,0,0,0,317.117,110Zm-110.234,0a18.013,18.013,0,0,1,17.946-18h62.342a18,18,0,0,1,0,36H224.829A18.013,18.013,0,0,1,206.883,110Z"/><path d="M229.992,95.563A14.039,14.039,0,1,0,244.031,109.6,14.055,14.055,0,0,0,229.992,95.563Zm0,16.078a2.039,2.039,0,1,1,2.039-2.039A2.042,2.042,0,0,1,229.992,111.641Z"/><path d="M296.047,109.6a14.039,14.039,0,1,0-14.039,14.039A14.055,14.055,0,0,0,296.047,109.6Zm-14.039,2.039a2.039,2.039,0,1,1,2.039-2.039A2.042,2.042,0,0,1,282.008,111.641Z"/><path d="M478,413.3V171.294a38.044,38.044,0,0,0-10.985-26.978A37.6,37.6,0,0,0,440.354,133H416V62.89A31.689,31.689,0,0,0,384.115,31H127.885A31.689,31.689,0,0,0,96,62.89V133H71.638C50.782,133,34,150.441,34,171.293V413.3A34.71,34.71,0,0,0,44.9,481H467.1A34.71,34.71,0,0,0,478,413.3ZM416,145h24.353a25.671,25.671,0,0,1,18.173,7.8A26.118,26.118,0,0,1,466,171.3V411H436V181.165A5.888,5.888,0,0,0,430.309,175H416ZM108,62.89A19.677,19.677,0,0,1,127.885,43h256.23A19.677,19.677,0,0,1,404,62.89V214.306C404,225.457,395.266,235,384.115,235H338V208.989A33.049,33.049,0,0,0,305.034,176H286v-7.49a59.314,59.314,0,0,0,46.648-35.993,22.958,22.958,0,0,0-.035-45.908A59.171,59.171,0,0,0,278.058,50H233.942A59.156,59.156,0,0,0,179.4,86.609a22.948,22.948,0,0,0-.046,45.888A59.337,59.337,0,0,0,226,168.51V176H206.966A33.049,33.049,0,0,0,174,208.989V235H127.885C116.734,235,108,225.457,108,214.306ZM256.069,204.5A33.916,33.916,0,0,0,222,238.4v16.523C216,243.9,206.305,235,186.86,235H186V208.989A21.035,21.035,0,0,1,206.966,188h98.068A21.035,21.035,0,0,1,326,208.989V235H289.912A34.326,34.326,0,0,0,256.069,204.5ZM277.792,235H264.469a15.316,15.316,0,0,0-15.314,12.592c-2.777,15.5-9.155,24.8-15.155,30.495V238.4a22.039,22.039,0,0,1,43.792-3.4ZM234,157a47,47,0,0,1-47-47v-1a47,47,0,0,1,47-47h44a47,47,0,0,1,47,47v1a47,47,0,0,1-47,47Zm40,12v7H238v-7Zm62.218-69.542a10.9,10.9,0,0,1-.007,20.287,59.172,59.172,0,0,0,.789-9.7v-.891A59.072,59.072,0,0,0,336.218,99.458ZM175.782,119.745a10.9,10.9,0,0,1,.007-20.287,59.181,59.181,0,0,0-.789,9.7v.891A59.064,59.064,0,0,0,175.782,119.745ZM127.885,247H186.86c24.143,0,27.908,18.437,29.7,37.562a49.441,49.441,0,0,0,1.16,8.148,6.282,6.282,0,0,0,5.249,4.905,6.064,6.064,0,0,0,.882.035,6.146,6.146,0,0,0,2.9-.749c4.967-1.9,27.891-12.257,34.151-47.184a3.413,3.413,0,0,1,3.57-2.717H384.115C401.883,247,416,232.074,416,214.306V187h8V411H308.384a6.451,6.451,0,0,0-4.967,3.068L293.594,429h-76.21l-9.823-14.932A6.455,6.455,0,0,0,202.593,411H88V187h8v27.306C96,232.074,110.117,247,127.885,247ZM46,171.291C46,157.052,57.405,145,71.646,145H96v30H81.691A5.888,5.888,0,0,0,76,181.165V411H46ZM467.1,469H44.905A22.8,22.8,0,0,1,22,446.242,23.19,23.19,0,0,1,44.9,423H199.411l9.823,14.932A6.453,6.453,0,0,0,214.2,441h82.575a6.451,6.451,0,0,0,4.967-3.068L311.567,423H467.1a23,23,0,0,1,0,46Z"/><path d="M131.976,392h53.133a6,6,0,1,0,0-12H131.976a6,6,0,0,0,0,12Z"/><path d="M329.761,380h-111.3a6,6,0,1,0,0,12h111.3a6,6,0,0,0,0-12Z"/><path d="M380.024,380H355.732a6,6,0,1,0,0,12h24.292a6,6,0,0,0,0-12Z"/><path d="M131.976,357h18.437a6,6,0,0,0,0-12H131.976a6,6,0,0,0,0,12Z"/><path d="M189.617,345H176.231a6,6,0,0,0,0,12h13.386a6,6,0,0,0,0-12Z"/><path d="M209.645,351a6,6,0,0,0,6,6H380.024a6,6,0,0,0,0-12H215.645A6,6,0,0,0,209.645,351Z"/><path d="M131.976,316h14.908a6,6,0,1,0,0-12H131.976a6,6,0,0,0,0,12Z"/><path d="M173.052,316h46.367a6,6,0,0,0,0-12H173.052a6,6,0,0,0,0,12Z"/><path d="M245.446,316H380.024a6,6,0,0,0,0-12H245.446a6,6,0,0,0,0,12Z"/><text x="0" y="527" fill="#000000" font-size="5px" font-weight="bold" font-family="'Helvetica Neue', Helvetica, Arial-Unicode, Arial, Sans-serif">Created by Icongeek26</text><text x="0" y="532" fill="#000000" font-size="5px" font-weight="bold" font-family="'Helvetica Neue', Helvetica, Arial-Unicode, Arial, Sans-serif">from the Noun Project</text></svg>