<svg xmlns="http://www.w3.org/2000/svg" data-name="Layer 1" viewBox="0 0 512 640" x="0px" y="0px"><path d="M174.989,217.539A14.058,14.058,0,1,0,160.932,231.6,14.073,14.073,0,0,0,174.989,217.539Z"/><path d="M263.672,225.558a14.058,14.058,0,1,0-14.058,14.058A14.075,14.075,0,0,0,263.672,225.558Z"/><path d="M86.559,181A19.5,19.5,0,0,1,106,200.441V204.2a9.831,9.831,0,0,0,9.8,9.8h21.4a23.707,23.707,0,0,1,24.57-20.245,24.032,24.032,0,0,1-.842,48.05A24.318,24.318,0,0,1,137.643,224H115.8A19.8,19.8,0,0,1,96,204.2v-4.116A9.082,9.082,0,0,0,86.918,191H71.449a163.265,163.265,0,0,0,17.977,61.792,3.365,3.365,0,0,1,.2.333c.8,1.968,19.53,48.511,21.444,69.075,5.509,59.165,1.445,150.8.292,173.8H176V287.587A9.615,9.615,0,0,0,166.413,278h-9.819a23.943,23.943,0,1,1,.072-10h10.022A19.312,19.312,0,0,1,186,287.312V496h21V236.984A18.984,18.984,0,0,1,225.984,218h.932a23.456,23.456,0,0,1,22.205-16.294,23.959,23.959,0,1,1-23.277,25.91A9.226,9.226,0,0,0,217,236.984V496h44l.325-52.406c.1-16.093,12.54-29.786,28.616-30.558q.75-.036,1.508-.036h.132c22.465,0,49.79.177,52.606.265A34.867,34.867,0,0,0,380,378.292V319.307A5.322,5.322,0,0,1,385.307,314h52.854a2.931,2.931,0,0,0,2.46-1.14,2.517,2.517,0,0,0,.331-2.546L417.845,250H370.477A9.5,9.5,0,0,0,361,259.477v25.634A18.889,18.889,0,0,1,342.111,304H291.448a24.037,24.037,0,1,1-23.5-28.946c11.6,0,21.308,8.946,23.563,18.946h50.2A9.293,9.293,0,0,0,351,284.707v-25.6A19.111,19.111,0,0,1,370.111,240h43.916l-7.556-19.956a5.924,5.924,0,0,1-.329-1.933c-.033-13.626-.131-34.781-.271-37.076A175.426,175.426,0,0,0,401.409,150H348.375A9.375,9.375,0,0,0,339,159.375v22.916a24.062,24.062,0,1,1-10,0V159.583A19.64,19.64,0,0,1,348.583,140h50.155A173.985,173.985,0,0,0,239,16.152V68.813A9.187,9.187,0,0,0,248.187,78h8.23A19.584,19.584,0,0,1,276,97.583v38.694a24.046,24.046,0,1,1-30.547,23.129c0-12.113,9.547-22.158,20.547-23.814V97.156A9.156,9.156,0,0,0,256.844,88H247.9A18.9,18.9,0,0,1,229,69.1V16.033c-2,.019-2.66.041-3.848.084A161.711,161.711,0,0,0,178,24.81V60.043a9.465,9.465,0,0,0,9.585,9.377A19.505,19.505,0,0,1,207,88.805v41.757A19.5,19.5,0,0,1,187.562,150H174.084a23.907,23.907,0,0,1-24.691,18.889A24.061,24.061,0,1,1,174.14,140h13.3A9.589,9.589,0,0,0,197,130.439V88.8a9.467,9.467,0,0,0-9.585-9.378A19.5,19.5,0,0,1,168,60.035V28.7a174.7,174.7,0,0,0-21.125,11.129A163.574,163.574,0,0,0,70.935,181ZM130,365a5,5,0,0,1,10,0v2a5,5,0,0,1-10,0Zm0,22a5,5,0,0,1,10,0v72a5,5,0,0,1-10,0Z"/><circle cx="133.099" cy="273.048" r="14.058"/><path d="M253.891,299.36A14.058,14.058,0,1,0,267.948,285.3,14.073,14.073,0,0,0,253.891,299.36Z"/><circle cx="333.99" cy="205.822" r="14.058"/><circle cx="269.625" cy="159.406" r="14.058"/><path d="M136.522,144.827a14.058,14.058,0,1,0,14.058-14.058A14.074,14.074,0,0,0,136.522,144.827Z"/><text x="0" y="527" fill="#000000" font-size="5px" font-weight="bold" font-family="'Helvetica Neue', Helvetica, Arial-Unicode, Arial, Sans-serif">Created by Icongeek26</text><text x="0" y="532" fill="#000000" font-size="5px" font-weight="bold" font-family="'Helvetica Neue', Helvetica, Arial-Unicode, Arial, Sans-serif">from the Noun Project</text></svg>